<svg width="240" height="240" viewBox="0 0 240 240" fill="none" xmlns="http://www.w3.org/2000/svg">
<rect width="240" height="240" rx="5" fill="white"/>
<path d="M20 65C20 62.2386 22.2386 60 25 60H57.1429V220H25C22.2386 220 20 217.761 20 215V65Z" fill="#0032B6"/>
<rect x="57.1428" y="60" width="3.71429" height="40" fill="#0032B6"/>
<rect x="57.1428" y="180" width="3.71429" height="40" fill="#0032B6"/>
<path d="M60.8572 25C60.8572 22.2386 63.0957 20 65.8572 20H93C95.7614 20 98 22.2386 98 25V215C98 217.761 95.7614 220 93 220H60.8572V25Z" fill="#0032B6"/>
<path d="M102 60H138.875V171C138.875 173.761 136.636 176 133.875 176H107C104.239 176 102 173.761 102 171V60Z" fill="#0032B6"/>
<path d="M102 25C102 22.2386 104.239 20 107 20H215C217.761 20 220 22.2386 220 25V60H102V25Z" fill="#0032B6"/>
<path d="M102 185C102 182.239 104.239 180 107 180H215C217.761 180 220 182.239 220 185V215C220 217.761 217.761 220 215 220H107C104.239 220 102 217.761 102 215V185Z" fill="#0032B6"/>
<path d="M183.125 60H220V171C220 173.761 217.761 176 215 176H188.125C185.364 176 183.125 173.761 183.125 171V60Z" fill="#0032B6"/>
<path d="M142.562 60H179.438V171C179.438 173.761 177.199 176 174.438 176H147.563C144.801 176 142.562 173.761 142.562 171V60Z" fill="#0032B6"/>
</svg>
